<?xml version="1.0" encoding="UTF-8"?>
<!DOCTYPE svg PUBLIC "-//W3C//DTD SVG 1.1//EN" "http://www.w3.org/Graphics/SVG/1.1/DTD/svg11.dtd">
<!-- Creator: CorelDRAW -->
<svg xmlns="http://www.w3.org/2000/svg" xml:space="preserve" width="179.464mm" height="55.4914mm" version="1.1" style="shape-rendering:geometricPrecision; text-rendering:geometricPrecision; image-rendering:optimizeQuality; fill-rule:evenodd; clip-rule:evenodd"
viewBox="0 0 17090.76 5284.57"
 xmlns:xlink="http://www.w3.org/1999/xlink"
 xmlns:xodm="http://www.corel.com/coreldraw/odm/2003">
 <defs>
  <style type="text/css">
   <![CDATA[
    .fil0 {fill:#677D77}
   ]]>
  </style>
 </defs>
 <g id="Camada_x0020_1">
  <metadata id="CorelCorpID_0Corel-Layer"/>
  <path class="fil0" d="M2642.29 0c1459.29,0 2642.29,1182.99 2642.29,2642.29 0,1459.29 -1182.99,2642.29 -2642.29,2642.29 -1459.29,0 -2642.29,-1182.99 -2642.29,-2642.29 0,-1459.29 1182.99,-2642.29 2642.29,-2642.29zm-86.67 4108.03c18.56,-106.71 -31.54,-86.86 84.42,-77.47 -21.85,117.27 -10.11,41.72 -84.42,77.47zm-225.48 -67.58c10.48,-78.12 13.37,-78.57 60.91,-128.14 10.93,-11.4 46.94,-44.51 55.17,-47.52 152.24,-55.6 40.56,-7.86 83.14,22.07 18.89,85.46 -71.23,162.85 -199.22,153.59zm-206.14 -97.52c3.5,-114.66 18.42,-112.08 86.3,-177.39 161.44,-155.31 148.23,-56.68 149.12,-56.31 31.11,89.07 -108.69,224.58 -235.42,233.7zm-163.65 -168.23c19.1,-184.08 328.47,-353.15 239.85,-155.39 -0.64,1.42 -60.13,63.24 -66.56,69.75 -65.02,65.82 -54.16,92.5 -173.29,85.64zm-161 -174.1c32.94,-93.86 86.42,-146.32 181.52,-180.38 66.92,118.97 -65.39,254.43 -181.52,180.38zm-311.5 -2271.69c0,-157.4 8.19,-159.06 163.31,-159.06l1476.9 0c631.96,-0.26 666.62,-57.91 666.81,159.06l-5.29 1567.86c-517.95,10.37 -462.38,-154.87 -862.92,-155.46 -1140.04,-1.67 -568.55,185.13 -1434.46,154.23l-4.36 -1566.63zm-111.74 1570.34l-308.16 0c22.15,149.35 -103.05,105.86 381.81,105.33 532.11,-0.58 346.66,41.81 821.79,-116.6 169.11,-56.39 264.9,-41.1 451.46,-40.12 -95.31,144.47 -392.74,252.14 -372.28,459.07 37.31,377.47 508.61,-1.82 508.81,-1.91 102.84,101.23 458.9,397.43 458.78,527.12 -218.31,23.07 -322.3,-366.43 -495.81,-365.73 -12.68,22.03 -118.8,-31.74 20.82,122.56 106.54,117.74 266.04,189.07 265.56,340.35 -196.25,43.14 -209.26,-238.66 -352.89,-248.16 -82.97,-5.49 -23.76,0.24 -68.72,31.67 -16.43,100.19 184.46,116.53 216.74,343.6 -205.33,-32.91 -158.09,-132.71 -371.97,-319.31l-215.82 -222.6c-98.51,-116.35 -59.59,-53.25 -160.81,-100.28 -0.75,-0.35 -329.03,-302.77 -462.67,166.14l-621.76 29.95c45.47,100.85 -110.41,66.85 301.73,77 55.32,493.58 -139.86,514.83 446.57,523.44 210.86,3.1 221.03,51.34 245.36,-105.88 -540.47,0 -575,63.04 -578.93,-190.99 -1.16,-74.96 2.73,-150.19 9.51,-224.57 143.85,-4.82 263.7,-23.39 356.13,89.91 249.33,305.62 229.2,209.53 391.32,313.56 116.74,74.9 384.54,179.8 506.17,35.18 177.87,79.61 136.05,-2.06 289.18,-67.93 306.23,-131.73 379.63,-133.12 388.68,-322.27 253.48,-7.21 194.65,-64.48 371.35,-100.9l-11.39 401.14c-40.57,153.89 -397.41,-9.86 -567.71,109.11 36,65.71 -30.09,66.97 244.41,63.62 534.43,-6.51 437.61,-6.46 438.78,-575.96l314.43 -9.57c-18.59,-86.97 9.21,-138.31 -419.37,-93.9 -213.9,22.16 -111.62,107.91 -434.2,100.48l-259.55 -251.59c124.94,-57.81 140.61,-32.74 244.59,-119.87 -32.4,-50.66 -20.32,-35.15 -55.15,-74.36 -245.89,121.96 -234.97,88.49 -439.49,-30.98 -286.35,223.52 -253.42,243.57 -386.95,178.79 -10.25,-192.4 156.33,-231.83 261.56,-325.28 401.55,-356.59 458.89,-8.66 935.91,-4.16 100.94,0.95 202.35,-1.96 303.51,-0.29 15.49,0.26 169.44,2.52 171.17,2.06 121.73,-32.76 52.3,48.14 76.34,-108l-306.51 0c-154.78,-1781.04 318.61,-1833.56 -478.31,-1833.64l-1544.04 -0.05c-815,-0.36 -378.96,-6.89 -510.01,1834.81zm897.83 -1467.27l736.64 0 -1.81 -105.49 -736.64 0 1.81 105.49zm1364.14 156.64l-1993.44 0c21.94,157.66 -80.31,105.07 442.88,106.07l1343.73 0.51c209.52,3.66 185.9,40.93 206.83,-106.58zm-1991.49 478.4c76.08,63.25 -81.84,24.3 103.35,48.99l471.85 -2.65c376.65,0.01 487.72,54.83 522.18,-79.89l-994.76 -29.43c-188.12,22.03 -45.3,16.52 -102.61,62.98zm629.73 255.61l-631.69 0c24.01,137.28 -46.37,93.5 103.66,110.07 30.11,3.32 161.92,-4.68 204.92,-4.68 409.09,0 291.38,35.5 323.1,-105.39zm-474.11 315.07l262.45 0c-12.98,-98.11 49.61,-129.83 -146.54,-113.62 -184.28,15.23 -96.75,-17.71 -115.91,113.62zm1836.92 -315.55c-374.9,2.49 -593.13,-54.66 -630.85,80.38 85.39,44.56 243.86,24.62 354.91,26.44 209.15,3.43 247.16,56.23 275.94,-106.81zm-1991.69 -456.43c69.91,44.67 71.22,38.77 204.21,39.23l1614.28 1.48c213.43,0.23 154.76,34.79 172.15,-108.13l-1752.37 -0.38c-14.6,-0.09 -132.99,-1.83 -137.57,-1.18 -209.43,29.62 -46.67,15.42 -100.7,68.99zm1648.59 658.67c-171.33,1 -105.83,14.98 -132,79.43 71.98,46.02 125.27,47.4 222.19,24.68l42.09 -24.68c-23.71,-63.51 54.17,-80.53 -132.28,-79.43zm3049.37 350.96l132.88 411.7 233.07 -74.06 -485.75 -1516.07 -278.82 0 -485.75 1516.07 233.08 74.06 132.87 -411.7 518.43 0zm-287.53 -725.36l23.96 -148.12 8.71 0 23.96 148.12 159.01 496.65 -374.66 0 159.02 -496.65zm1097.84 -204.76l-89.31 -270.1 -235.25 78.41 74.06 222.19 0 1267.74 250.5 0 0 -1298.24zm1204.57 993.29l0 -877.84 -250.5 0 0 816.85 -119.8 137.23 -276.64 0 -67.53 -67.52 0 -886.56 -250.5 0 0 975.86 209.11 206.93 453.08 0 126.34 -145.94 41.39 167.72 202.58 -50.1 -67.53 -276.63zm583.77 463.96l-237.42 -74.05 -61 196.04 272.29 84.96 551.1 0 159.01 -159.02 0 -215.64 -159.01 -159.01 -548.93 0 -30.49 -30.5 0 -58.81 30.49 -30.49 505.36 0 209.11 -206.94 0 -385.55 -145.94 -126.34 167.72 -41.39 -50.09 -202.58 -276.64 67.53 -459.62 0 -209.11 206.94 0 440 100.2 100.2 -100.2 100.19 0 215.65 159.02 159.01 548.92 0 30.49 30.49 0 58.82 -30.49 30.49 -424.76 0zm440.01 -993.28l0 250.5 -67.53 67.53 -296.24 0 -108.92 -108.92 0 -261.39 67.53 -67.52 267.93 0 137.23 119.8zm1433.29 529.32l0 -877.84 -250.5 0 0 816.85 -119.8 137.23 -276.64 0 -67.53 -67.52 0 -886.56 -250.5 0 0 975.86 209.11 206.93 453.08 0 126.34 -145.94 41.39 167.72 202.58 -50.1 -67.53 -276.63zm943.19 76.23l-339.81 0 -67.53 -67.52 0 -161.2 524.96 0 187.33 -185.15 0 -333.27 -209.11 -206.94 -544.57 0 -209.11 206.94 0 768.92 209.11 206.93 481.4 0 278.81 -87.13 -67.52 -217.82 -243.97 76.23zm-339.81 -725.36l326.74 0 67.52 67.52 0 143.77 -56.63 56.63 -405.16 0 0 -200.41 67.53 -67.52zm2487.57 148.12l143.76 -113.27 0 -418.23 -209.11 -209.11 -845.17 0 0 1546.56 847.35 0 252.67 -252.68 0 -405.16 -189.5 -148.11zm-61 226.54l0 241.79 -108.91 108.91 -490.11 0 0 -461.79 455.26 0 143.76 111.1zm-599.02 -738.43l485.75 0 67.53 67.52 0 263.57 -87.13 67.53 -466.15 0 0 -398.62zm1736.07 1089.12l-339.81 0 -67.53 -67.52 0 -161.2 524.96 0 187.33 -185.15 0 -333.27 -209.11 -206.94 -544.57 0 -209.11 206.94 0 768.92 209.11 206.93 481.4 0 278.81 -87.13 -67.52 -217.82 -243.97 76.23zm-339.81 -725.36l326.74 0 67.52 67.52 0 143.77 -56.63 56.63 -405.16 0 0 -200.41 67.53 -67.52zm1557.46 -228.72l-361.6 0 -126.34 145.94 -41.39 -167.72 -202.58 50.1 67.53 276.63 0 877.84 250.5 0 0 -816.85 119.8 -137.23 200.4 0 80.6 87.13 0 866.95 250.5 0 0 -866.95 80.6 -87.13 252.68 0 67.53 67.52 0 886.56 250.5 0 0 -975.85 -209.11 -206.94 -453.08 0 -113.27 124.16 -113.27 -124.16z"/>
 </g>
</svg>
